<svg xmlns="http://www.w3.org/2000/svg" viewBox="0 0 800 90"><defs><style>.cls-1{fill:#dbd6ca;}</style></defs><g id="Layer_2" data-name="Layer 2"><g id="Layer_1-2" data-name="Layer 1"><g id="Layer_2-2" data-name="Layer 2"><g id="Layer_1-2-2" data-name="Layer 1-2"><path id="Path_113417" data-name="Path 113417" class="cls-1" d="M800,0V90H0V0H.54c0,2,2.24,3.54,5,3.54h0c2.78,0,5-1.54,5-3.54H12c0,2,2.22,3.54,5,3.54h0C19.78,3.54,22,2,22,0h1.36c0,2,2.26,3.54,5,3.54h0C31.22,3.54,33.46,2,33.46,0h1.38c0,2,2.24,3.54,5,3.54s5-1.54,5-3.54h1.38c0,2,2.24,3.54,5,3.54s5-1.54,5-3.54h1.36c0,2,2.26,3.54,5,3.54s5-1.54,5-3.54h1.36c0,2,2.26,3.54,5,3.54s5-1.54,5-3.54h1.38c0,2,2.26,3.54,5,3.54s5-1.54,5-3.54H92c0,2,2.26,3.54,5,3.54S102,2,102,0h1.36c0,2,2.26,3.54,5,3.54S113.48,2,113.5,0h1.36c0,2,2.26,3.54,5,3.54s5-1.54,5-3.54h1.38c0,2,2.24,3.54,5,3.54s5-1.54,5-3.54h1.36c0,2,2.26,3.54,5,3.54h0c2.78,0,5-1.54,5-3.54h1.36c0,2,2.26,3.54,5,3.54h0c2.8,0,5-1.54,5.06-3.54h1.36c0,2,2.24,3.54,5,3.54h0c2.8,0,5-1.54,5-3.54H172c0,2,2.24,3.54,5,3.54h0c2.82,0,5-1.54,5-3.54h1.38c0,2,2.24,3.54,5,3.54S193.52,2,193.52,0h1.36c0,2,2.26,3.54,5,3.54s5-1.54,5-3.54h1.38c0,2,2.26,3.54,5,3.54s5-1.54,5-3.54h1.36c0,2,2.26,3.54,5,3.54s5-1.54,5-3.54h1.36c0,2,2.26,3.54,5,3.54s5-1.54,5-3.54h1.36c0,2,2.26,3.54,5,3.54s5-1.54,5-3.54H252c0,2,2.24,3.54,5,3.54S262.12,2,262.12,0h1.36c0,2,2.26,3.54,5,3.54s5-1.54,5-3.54h1.36c0,2,2.26,3.54,5,3.54S285,2,285,0h1.36c0,2,2.24,3.54,5,3.54h0c2.78,0,5-1.59,5-3.54h1.38c0,2,2.24,3.54,5,3.54h0c2.78,0,5-1.59,5-3.54h1.36c0,2,2.26,3.54,5,3.54h0c2.78,0,5-1.59,5-3.54h1.36c0,2,2.24,3.54,5,3.54h0c2.78,0,5-1.59,5-3.54h1.4c0,2,2.24,3.54,5,3.54S342.14,2,342.14,0h1.36c0,2,2.26,3.54,5,3.54s5-1.54,5-3.54h1.36c0,2,2.26,3.54,5,3.54S365,2,365,0h1.36c0,2,2.26,3.54,5,3.54s5-1.54,5-3.54h1.38c0,2,2.24,3.54,5,3.54s5-1.54,5-3.54h1.36c0,2,2.26,3.54,5,3.54s5-1.54,5-3.54h1.36c0,2,2.26,3.54,5,3.54s5-1.54,5-3.54h1.36c0,2,2.26,3.54,5,3.54s5-1.54,5-3.54h1.38c0,2,2.24,3.54,5,3.54s5-1.54,5-3.54H435c0,2,2.26,3.54,5,3.54h0c2.78,0,5-1.59,5-3.54h1.36c0,2,2.24,3.54,5,3.54h0c2.78,0,5-1.59,5-3.54h1.36c0,2,2.24,3.54,5,3.54h0C465.66,3.54,468,2,468,0h1.4c0,2,2.22,3.54,5,3.54S479.34,2,479.34,0h1.36c0,2,2.26,3.54,5,3.54s5-1.54,5-3.54h1.36c0,2,2.26,3.54,5,3.54s5-1.54,5-3.54h1.38c0,2,2.24,3.54,5,3.54s5-1.54,5-3.54H515c0,2,2.26,3.54,5,3.54s5-1.54,5-3.54h1.36c0,2,2.26,3.54,5,3.54s5-1.54,5-3.54h1.36c0,2,2.26,3.54,5,3.54S548,2,548,0h1.38c0,2,2.24,3.54,5,3.54s5-1.54,5-3.54h1.36c0,2,2.26,3.54,5,3.54s5-1.54,5-3.54h1.36c0,2,2.24,3.54,5,3.54h0c2.8,0,5-1.54,5.06-3.54h1.36c0,2,2.24,3.54,5,3.54h0c2.76,0,5-1.59,5-3.54H595c0,2,2.24,3.54,5,3.54h0c2.78,0,5-1.59,5-3.54h1.36c0,2,2.26,3.54,5,3.54h0c2.78,0,5-1.59,5-3.54H618c0,2,2.24,3.54,5,3.54S628,2,628,0h1.38c0,2,2.24,3.54,5,3.54s5-1.54,5-3.54h1.36c0,2,2.26,3.54,5,3.54s5-1.54,5-3.54h1.36c0,2,2.26,3.54,5,3.54s5-1.54,5-3.54h1.36c0,2,2.26,3.54,5,3.54s5-1.54,5-3.54h1.38c0,2,2.24,3.54,5,3.54s5-1.54,5-3.54h1.36c0,2,2.26,3.54,5,3.54s5-1.54,5-3.54H698c0,2,2.26,3.54,5,3.54S708,2,708,0h1.36c0,2,2.26,3.54,5,3.54s5-1.54,5-3.54h1.38c0,2,2.24,3.54,5,3.54h0c2.78,0,5-1.59,5-3.54h1.36c0,2,2.26,3.54,5,3.54h0c2.72,0,5-1.54,5-3.54h1.36c0,2,2.24,3.54,5,3.54h0c2.78,0,5-1.59,5-3.54h1.38c0,2,2.24,3.54,5,3.54h0c2.78,0,5-1.59,5-3.54h1.38c0,2,2.24,3.54,5,3.54S776.6,2,776.6,0H778c0,2,2.26,3.54,5,3.54S788,2,788,0h1.36c0,2,2.26,3.54,5,3.54S799.46,2,799.46,0Z"/></g></g></g></g></svg>