<svg xmlns="http://www.w3.org/2000/svg" viewBox="0 0 400 90"><defs><style>.cls-1{fill:#dbd6ca;}</style></defs><g id="Layer_2" data-name="Layer 2"><g id="Layer_1-2" data-name="Layer 1"><path id="Path_113417" data-name="Path 113417" class="cls-1" d="M400,0V90H0V0H.27c0,2,1.12,3.54,2.51,3.54h0C4.17,3.54,5.3,2,5.3,0H6C6,2,7.11,3.54,8.5,3.54h0C9.89,3.54,11,2,11,0h.68c0,2,1.13,3.54,2.51,3.54h0C15.61,3.54,16.73,2,16.73,0h.69c0,2,1.12,3.54,2.51,3.54S22.44,2,22.44,0h.69c0,2,1.12,3.54,2.51,3.54S28.16,2,28.16,0h.68c0,2,1.13,3.54,2.52,3.54S33.88,2,33.88,0h.68c0,2,1.13,3.54,2.52,3.54S39.59,2,39.59,0h.69c0,2,1.13,3.54,2.51,3.54S45.31,2,45.31,0H46c0,2,1.13,3.54,2.52,3.54S51,2,51,0h.68c0,2,1.13,3.54,2.52,3.54S56.74,2,56.75,0h.68c0,2,1.13,3.54,2.52,3.54S62.46,2,62.46,0h.69c0,2,1.12,3.54,2.51,3.54S68.18,2,68.18,0h.68c0,2,1.13,3.54,2.52,3.54h0C72.77,3.54,73.9,2,73.9,0h.68c0,2,1.13,3.54,2.51,3.54h0C78.49,3.54,79.61,2,79.62,0h.68c0,2,1.12,3.54,2.51,3.54h0C84.21,3.54,85.33,2,85.33,0H86c0,2,1.12,3.54,2.51,3.54h0C89.92,3.54,91,2,91,0h.69c0,2,1.12,3.54,2.51,3.54S96.76,2,96.76,0h.68c0,2,1.13,3.54,2.52,3.54S102.47,2,102.47,0h.69c0,2,1.13,3.54,2.51,3.54S108.19,2,108.19,0h.68c0,2,1.13,3.54,2.52,3.54S113.91,2,113.91,0h.68c0,2,1.13,3.54,2.52,3.54S119.62,2,119.63,0h.68c0,2,1.13,3.54,2.52,3.54S125.34,2,125.34,0H126c0,2,1.12,3.54,2.51,3.54S131.06,2,131.06,0h.68c0,2,1.13,3.54,2.52,3.54S136.78,2,136.78,0h.68c0,2,1.13,3.54,2.52,3.54S142.49,2,142.5,0h.68c0,2,1.12,3.54,2.51,3.54h0c1.39,0,2.51-1.59,2.51-3.54h.69c0,2,1.12,3.54,2.51,3.54h0c1.39,0,2.52-1.59,2.52-3.54h.68c0,2,1.13,3.54,2.52,3.54h0c1.39,0,2.52-1.59,2.52-3.54h.68c0,2,1.12,3.54,2.51,3.54h0c1.39,0,2.51-1.59,2.5-3.54h.7c0,2,1.12,3.54,2.5,3.54S171.07,2,171.07,0h.68c0,2,1.13,3.54,2.52,3.54S176.79,2,176.79,0h.68c0,2,1.13,3.54,2.52,3.54S182.51,2,182.51,0h.68c0,2,1.13,3.54,2.52,3.54S188.22,2,188.22,0h.69c0,2,1.12,3.54,2.51,3.54S193.94,2,193.94,0h.68c0,2,1.13,3.54,2.52,3.54S199.66,2,199.66,0h.68c0,2,1.13,3.54,2.52,3.54S205.37,2,205.38,0h.68c0,2,1.13,3.54,2.52,3.54S211.09,2,211.09,0h.69c0,2,1.12,3.54,2.51,3.54S216.81,2,216.81,0h.68c0,2,1.13,3.54,2.52,3.54h0c1.39,0,2.52-1.59,2.52-3.54h.68c0,2,1.12,3.54,2.51,3.54h0c1.39,0,2.51-1.59,2.52-3.54h.68c0,2,1.12,3.54,2.51,3.54h0C232.83,3.54,234,2,234,0h.7c0,2,1.11,3.54,2.5,3.54S239.67,2,239.67,0h.68c0,2,1.13,3.54,2.52,3.54S245.39,2,245.39,0h.68c0,2,1.13,3.54,2.52,3.54S251.1,2,251.1,0h.69c0,2,1.12,3.54,2.51,3.54S256.82,2,256.82,0h.68c0,2,1.13,3.54,2.52,3.54S262.54,2,262.54,0h.68c0,2,1.13,3.54,2.52,3.54S268.25,2,268.26,0h.68c0,2,1.13,3.54,2.52,3.54S274,2,274,0h.69c0,2,1.12,3.54,2.51,3.54S279.69,2,279.69,0h.68c0,2,1.13,3.54,2.52,3.54S285.41,2,285.41,0h.68c0,2,1.12,3.54,2.51,3.54h0C290,3.54,291.12,2,291.13,0h.68c0,2,1.12,3.54,2.51,3.54h0c1.38,0,2.51-1.59,2.51-3.54h.69c0,2,1.12,3.54,2.51,3.54h0c1.39,0,2.52-1.59,2.52-3.54h.68c0,2,1.13,3.54,2.52,3.54h0c1.39,0,2.51-1.59,2.51-3.54H309c0,2,1.12,3.54,2.51,3.54S314,2,314,0h.69c0,2,1.12,3.54,2.51,3.54S319.7,2,319.7,0h.68c0,2,1.13,3.54,2.52,3.54S325.42,2,325.42,0h.68c0,2,1.13,3.54,2.52,3.54S331.13,2,331.14,0h.68c0,2,1.13,3.54,2.52,3.54S336.85,2,336.85,0h.69c0,2,1.12,3.54,2.51,3.54S342.57,2,342.57,0h.68c0,2,1.13,3.54,2.52,3.54S348.29,2,348.29,0H349c0,2,1.13,3.54,2.52,3.54S354,2,354,0h.68c0,2,1.13,3.54,2.52,3.54S359.72,2,359.72,0h.69c0,2,1.12,3.54,2.51,3.54h0c1.39,0,2.52-1.59,2.52-3.54h.68c0,2,1.13,3.54,2.52,3.54h0C370,3.54,371.15,2,371.16,0h.68c0,2,1.12,3.54,2.51,3.54h0c1.39,0,2.51-1.59,2.51-3.54h.69c0,2,1.12,3.54,2.51,3.54h0c1.39,0,2.51-1.59,2.51-3.54h.69c0,2,1.12,3.54,2.51,3.54S388.3,2,388.3,0H389c0,2,1.13,3.54,2.52,3.54S394,2,394,0h.68c0,2,1.13,3.54,2.52,3.54S399.73,2,399.73,0H400Z"/></g></g></svg>