<svg xmlns="http://www.w3.org/2000/svg" viewBox="0 0 450 60"><defs><style>.cls-1{fill:#dbd6ca;}</style></defs><g id="Layer_2" data-name="Layer 2"><g id="Layer_1-2" data-name="Layer 1"><path id="Path_113273" data-name="Path 113273" class="cls-1" d="M0,60V0H450V60h-.3c0-.66-1.26-1.19-2.83-1.19h0c-1.56,0-2.83.53-2.83,1.19h-.77c0-.66-1.27-1.19-2.83-1.19h0c-1.57,0-2.83.53-2.84,1.19h-.76c0-.66-1.27-1.19-2.83-1.19h0c-1.56,0-2.82.54-2.82,1.19h-.78c0-.65-1.26-1.19-2.82-1.19s-2.83.53-2.83,1.19H424c0-.66-1.27-1.19-2.83-1.19s-2.83.53-2.83,1.19h-.77c0-.66-1.27-1.19-2.83-1.19s-2.83.53-2.83,1.19h-.77c0-.66-1.27-1.19-2.83-1.19s-2.83.53-2.83,1.19h-.77c0-.66-1.27-1.19-2.83-1.19S399,59.34,399,60h-.76c0-.66-1.27-1.19-2.84-1.19s-2.83.53-2.83,1.19h-.77c0-.66-1.27-1.19-2.83-1.19s-2.83.53-2.83,1.19h-.77c0-.66-1.27-1.19-2.83-1.19s-2.83.53-2.83,1.19H379c0-.66-1.27-1.19-2.83-1.19s-2.83.53-2.83,1.19h-.77c0-.66-1.27-1.19-2.83-1.19h0c-1.57,0-2.83.53-2.84,1.19h-.76c0-.66-1.27-1.19-2.83-1.19h0c-1.56,0-2.83.53-2.83,1.19h-.77c0-.66-1.26-1.19-2.82-1.19h0c-1.56,0-2.83.53-2.83,1.19h-.77c0-.66-1.26-1.19-2.83-1.19h0c-1.56,0-2.82.54-2.82,1.19h-.78c0-.65-1.26-1.19-2.82-1.19s-2.83.53-2.83,1.19h-.77c0-.66-1.27-1.19-2.83-1.19s-2.83.53-2.83,1.19H334c0-.66-1.27-1.19-2.83-1.19s-2.83.53-2.84,1.19h-.76c0-.66-1.27-1.19-2.84-1.19s-2.83.53-2.83,1.19h-.77c0-.66-1.27-1.19-2.83-1.19s-2.83.53-2.83,1.19h-.77c0-.66-1.27-1.19-2.83-1.19S309,59.34,309,60h-.77c0-.66-1.27-1.19-2.83-1.19s-2.83.53-2.83,1.19h-.77c0-.66-1.27-1.19-2.83-1.19s-2.83.53-2.84,1.19h-.76c0-.66-1.27-1.19-2.84-1.19s-2.83.53-2.83,1.19h-.77c0-.66-1.26-1.19-2.82-1.19h0c-1.56,0-2.83.53-2.83,1.19h-.77c0-.66-1.26-1.19-2.83-1.19h0c-1.56,0-2.83.53-2.83,1.19h-.77c0-.66-1.26-1.19-2.83-1.19h0c-1.56,0-2.83.53-2.83,1.19h-.77c0-.66-1.27-1.19-2.83-1.19h0c-1.56,0-2.83.54-2.82,1.19h-.78c0-.65-1.26-1.19-2.82-1.19s-2.83.53-2.84,1.19h-.76c0-.66-1.27-1.19-2.84-1.19s-2.83.53-2.83,1.19h-.77c0-.66-1.27-1.19-2.83-1.19s-2.83.53-2.83,1.19h-.77c0-.66-1.27-1.19-2.83-1.19s-2.83.53-2.83,1.19h-.77c0-.66-1.27-1.19-2.83-1.19s-2.83.53-2.83,1.19h-.77c0-.66-1.27-1.19-2.83-1.19s-2.83.53-2.84,1.19h-.76c0-.66-1.27-1.19-2.84-1.19S219,59.34,219,60h-.77c0-.66-1.27-1.19-2.83-1.19s-2.83.53-2.83,1.19h-.77c0-.66-1.27-1.19-2.83-1.19s-2.83.53-2.83,1.19h-.77c0-.66-1.26-1.19-2.83-1.19h0c-1.56,0-2.83.53-2.83,1.19h-.77c0-.66-1.27-1.19-2.83-1.19h0c-1.57,0-2.83.53-2.84,1.19h-.76c0-.66-1.27-1.19-2.83-1.19h0c-1.56,0-2.82.54-2.82,1.19H186c0-.65-1.26-1.19-2.82-1.19s-2.83.53-2.83,1.19h-.77c0-.66-1.27-1.19-2.83-1.19s-2.83.53-2.83,1.19h-.77c0-.66-1.27-1.19-2.83-1.19s-2.83.53-2.83,1.19h-.77c0-.66-1.27-1.19-2.83-1.19s-2.83.53-2.83,1.19h-.77c0-.66-1.27-1.19-2.83-1.19s-2.83.53-2.84,1.19h-.76c0-.66-1.27-1.19-2.84-1.19s-2.83.53-2.83,1.19h-.77c0-.66-1.27-1.19-2.83-1.19s-2.83.53-2.83,1.19H141c0-.66-1.27-1.19-2.83-1.19s-2.83.53-2.83,1.19h-.77c0-.66-1.27-1.19-2.83-1.19s-2.83.53-2.83,1.19h-.77c0-.66-1.27-1.19-2.83-1.19h0c-1.57,0-2.83.53-2.84,1.19h-.76c0-.66-1.27-1.19-2.83-1.19h0c-1.56,0-2.83.53-2.83,1.19h-.77c0-.66-1.26-1.19-2.82-1.19h0c-1.56,0-2.83.53-2.83,1.19h-.77c0-.66-1.26-1.19-2.83-1.19h0c-1.56,0-2.82.54-2.82,1.19h-.78c0-.65-1.26-1.19-2.82-1.19s-2.83.53-2.83,1.19H96c0-.66-1.27-1.19-2.83-1.19s-2.83.53-2.83,1.19h-.77c0-.66-1.27-1.19-2.83-1.19s-2.83.53-2.84,1.19h-.76c0-.66-1.27-1.19-2.84-1.19s-2.83.53-2.83,1.19H76.7c0-.66-1.27-1.19-2.83-1.19S71,59.34,71,60h-.77c0-.66-1.27-1.19-2.83-1.19s-2.83.53-2.83,1.19H63.8c0-.66-1.27-1.19-2.83-1.19s-2.83.53-2.83,1.19h-.77c0-.66-1.27-1.19-2.83-1.19s-2.83.53-2.84,1.19H51c0-.66-1.27-1.19-2.84-1.19s-2.83.53-2.83,1.19h-.77c0-.66-1.26-1.19-2.82-1.19h0c-1.56,0-2.83.53-2.83,1.19h-.77c0-.66-1.26-1.19-2.83-1.19h0c-1.56,0-2.83.53-2.83,1.19h-.77c0-.66-1.26-1.19-2.83-1.19h0c-1.56,0-2.83.53-2.83,1.19h-.77c0-.66-1.27-1.19-2.83-1.19h0c-1.56,0-2.83.54-2.82,1.19h-.78c0-.65-1.26-1.19-2.82-1.19s-2.83.53-2.84,1.19H12.4c0-.66-1.27-1.19-2.84-1.19S6.73,59.34,6.73,60H6c0-.66-1.27-1.19-2.83-1.19S.3,59.34.3,60Z"/></g></g></svg>